<?xml version="1.0" encoding="UTF-8"?>
<!DOCTYPE svg PUBLIC "-//W3C//DTD SVG 1.0//EN" "http://www.w3.org/TR/2001/REC-SVG-20010904/DTD/svg10.dtd">
<!-- Creator: CorelDRAW (Versão OEM) -->
<svg xmlns="http://www.w3.org/2000/svg" xml:space="preserve" width="289.373mm" height="97.7323mm" version="1.0" style="shape-rendering:geometricPrecision; text-rendering:geometricPrecision; image-rendering:optimizeQuality; fill-rule:evenodd; clip-rule:evenodd"
viewBox="0 0 6770.95 2286.81"
 xmlns:xlink="http://www.w3.org/1999/xlink"
 xmlns:xodm="http://www.corel.com/coreldraw/odm/2003">
 <defs>
  <style type="text/css">
   <![CDATA[
    .str0 {stroke:white;stroke-width:99.05;stroke-miterlimit:22.926}
    .fil4 {fill:none}
    .fil0 {fill:white}
    .fil1 {fill:url(#id0)}
    .fil3 {fill:url(#id1)}
    .fil2 {fill:url(#id2)}
    .fil7 {fill:url(#id3)}
    .fil6 {fill:url(#id4)}
    .fil5 {fill:url(#id5)}
   ]]>
  </style>
  <linearGradient id="id0" gradientUnits="userSpaceOnUse" x1="4309.48" y1="980.34" x2="5158.07" y2="980.34">
   <stop offset="0" style="stop-opacity:1; stop-color:#008ACC"/>
   <stop offset="1" style="stop-opacity:1; stop-color:#9ADAEF"/>
  </linearGradient>
  <linearGradient id="id1" gradientUnits="userSpaceOnUse" x1="4311.82" y1="1511.63" x2="5157.84" y2="1511.63">
   <stop offset="0" style="stop-opacity:1; stop-color:#F3CD12"/>
   <stop offset="1" style="stop-opacity:1; stop-color:#FBE793"/>
  </linearGradient>
  <linearGradient id="id2" gradientUnits="userSpaceOnUse" x1="4309.05" y1="1245.96" x2="5040.19" y2="1245.96">
   <stop offset="0" style="stop-opacity:1; stop-color:#D61379"/>
   <stop offset="0.85098" style="stop-opacity:1; stop-color:#DE3A7F"/>
   <stop offset="1" style="stop-opacity:1; stop-color:#DE3A7F"/>
  </linearGradient>
  <linearGradient id="id3" gradientUnits="userSpaceOnUse" x1="5719.31" y1="564.99" x2="5442.6" y2="1247.54">
   <stop offset="0" style="stop-opacity:1; stop-color:#8B8A8D"/>
   <stop offset="1" style="stop-opacity:1; stop-color:#3C3A3E"/>
  </linearGradient>
  <linearGradient id="id4" gradientUnits="userSpaceOnUse" x1="5069.3" y1="1231.24" x2="6167.59" y2="1249.69">
   <stop offset="0" style="stop-opacity:1; stop-color:#3C3A3E"/>
   <stop offset="0.360784" style="stop-opacity:1; stop-color:#3C3A3E"/>
   <stop offset="0.729412" style="stop-opacity:1; stop-color:#878688"/>
   <stop offset="0.890196" style="stop-opacity:1; stop-color:#8B8A8D"/>
   <stop offset="1" style="stop-opacity:1; stop-color:#8B8A8D"/>
  </linearGradient>
  <linearGradient id="id5" gradientUnits="userSpaceOnUse" x1="6318.8" y1="1067.55" x2="4995.76" y2="1422.43">
   <stop offset="0" style="stop-opacity:1; stop-color:#8B8A8D"/>
   <stop offset="0.6" style="stop-opacity:1; stop-color:#231F20"/>
   <stop offset="1" style="stop-opacity:1; stop-color:#231F20"/>
  </linearGradient>
 </defs>
 <g id="Layer_x0020_1">
  <metadata id="CorelCorpID_0Corel-Layer"/>
  <path class="fil0" d="M1669.96 1426.22l-0.07 -364.45 442.15 1.64c22.47,22.03 9.36,360.08 4.8,364.39 -13.37,12.67 -194.77,6.13 -228.45,6.13 -37.9,0 -75.8,-0.02 -113.71,0.02 -39.39,0.04 -78.91,5.27 -104.72,-7.73zm-86.19 -522.86c-140.02,31.79 -113.66,126.38 -113.66,251.48 -0.01,74.07 -11.41,287.94 4.88,346.33 29.79,106.82 174.56,91.96 309.17,91.96 93.43,0.01 350.06,9.49 425.1,-4.37 129.84,-24 109.48,-142.07 109.46,-255.54 -0.09,-409.42 60.12,-434.39 -316.61,-434.39 -79.69,0 -364.87,-7.62 -418.34,4.52z"/>
  <path class="fil0" d="M2630.98 1063.28l442.15 -1.4 -0.28 364.17c-19.92,10.42 22.21,3.29 -28.02,8.16l-85.67 -0.34c-75.92,-0.02 -291.15,6.5 -334.51,-5.23 -3.15,-16.48 -17.39,-351.6 6.34,-365.35zm-91.28 -160.53c-131.23,27.17 -115,138.63 -115.01,252.09 -0.02,420.05 -61.63,438.32 316.52,438.32 507.45,0 532.2,50.52 532.15,-259.93 -0.08,-420.78 58.64,-434.42 -314.21,-434.41 -83.37,0 -360.7,-8.24 -419.45,3.93z"/>
  <path class="fil0" d="M1357.64 1497.2l3.04 -125.21 -193.74 -1.08 -2.91 59.69c-51.04,7.78 -283.5,3.32 -365.32,3.4l-85.24 -0.42c-34.7,-3.62 -13.65,-3.04 -20.78,-5.83l-7.06 -24.23c-4.44,-44.39 -6.22,-320.97 9.53,-341.37l469.01 0 -0.01 61.7 199.8 -0.65c-0.04,-258.67 -44.49,-224.35 -461.03,-224.32 -89.04,0.01 -280.43,-15.27 -344.11,20.7 -92.82,52.45 -68.27,140.9 -68.27,250.77 0.01,327.34 -59.47,423.35 232.33,422.77 123.17,-0.24 246.38,-0.05 369.55,-0.01 131.92,0.04 244.47,2.63 265.19,-95.92z"/>
  <path class="fil0" d="M3578.43 1037.43l390.37 0c29.07,0 52.86,23.78 52.86,52.86l0 53.55c0,29.07 -23.79,52.85 -52.86,52.85l-390.37 0 0 -159.26zm-199.22 412.13l0.75 142.33c44.31,2.86 87.18,1.21 129.48,1.74 64.92,0.81 70.9,10.35 70.8,-42.3 -0.12,-64.12 -8.61,-163.95 2.75,-223.81 130.01,0 260.04,-0.24 390.04,0.02 264.66,0.56 230.5,-90.91 230.49,-289.05 -0.02,-160.34 -151.03,-139.69 -325.24,-139.69 -134.06,0 -377.97,-11.6 -498.99,2.73l-0.08 548.02z"/>
  <path class="fil1" d="M4309.48 898.83l0 163.04 848.59 -0.03c0,-90.01 -72.98,-162.98 -163,-162.99l-685.6 -0.02z"/>
  <path class="fil2" d="M4309.05 1327.52l699.15 -0.01c17.75,0 32.12,-16.76 32.05,-37.36l-0.31 -88.63c-0.07,-20.5 -14.39,-37.06 -32.04,-37.06l-695.47 -0.06 -3.39 163.12z"/>
  <path class="fil3" d="M4311.82 1591.09l690.68 -1.48c85.85,-0.19 155.33,-69.82 155.33,-155.66l-845.98 -1.76 -0.03 158.9z"/>
  <polyline class="fil4 str0" points="1049.04,257.95 49.53,257.95 49.53,2237.28 6721.42,2237.28 6721.42,257.95 5682.59,257.95 "/>
  <polygon class="fil0" points="5323.19,846.01 6187.13,824.49 6214.81,1291.82 6171.76,1697.67 5787.45,1663.84 5458.47,1630.02 5320.12,1626.95 "/>
  <path class="fil0" d="M5341.59 899.35l647.44 -0.03c115.08,-0.01 176.51,47.04 176.51,139.62 -0.01,186.45 32.42,272.66 -181.53,290.61 31.13,61.43 151.57,219.04 161.24,263.87l-208.27 0.01c-33.54,-41.79 -64.87,-93.59 -95.23,-139.4 -103.86,-156.78 -46.97,-126.21 -300.11,-126.22l-0.4 263.29 -199.55 2.3 -0.03 -112.38 -0.06 -581.67zm-78.13 756.8l980.96 261.34 0.3 -1341.58c-286.81,76.83 -583.11,155.43 -871.87,229.9 -149.84,38.65 -109.22,-15.64 -109.35,380.48 -0.06,156.62 -0.05,313.24 -0.05,469.86z"/>
  <path class="fil5" d="M5532.93 1191.48c-15.52,28.02 -17.64,94.89 -6.53,134.33 5.87,20.81 10.73,32.11 16.41,39.32l-0.32 -37.39c54.38,0.29 100.91,-1.64 129.38,-2.51l-134.97 -131.33 -1.72 0 0 -7.48c-0.85,1.69 -1.31,3.36 -2.25,5.06z"/>
  <path class="fil6" d="M5991.32 898.89l-640.48 0.04 -6.41 0 190.22 138.5 0.74 0 389.07 0c29.08,0 52.86,23.78 52.86,52.86l0 53.55c0,29.08 -23.78,52.86 -52.86,52.86l-381.96 0 -6.68 0 128.7 128.71 0.64 -0.02c115.24,-2.65 96.45,3.78 178.88,128.21 30.36,45.81 61.7,97.62 95.23,139.39l208.28 -0.01c-9.66,-44.83 -130.11,-202.43 -161.24,-263.87 213.96,-17.95 181.52,-104.17 181.53,-290.61 0,-92.58 -61.41,-139.62 -176.48,-139.62 -0.01,0 -0.03,0 -0.04,0z"/>
  <polygon class="fil7" points="5344.43,898.93 5343.88,898.93 5343.95,1480.58 5343.97,1592.97 5543.53,1590.67 5543.92,1327.38 5535.82,1196.7 5543.92,1327.38 5534.1,1037.43 5534.65,1037.43 "/>
  <path class="fil0" d="M615.61 1751.95l-77.71 0 0 -10.87 167.85 0 0 10.87 -77.71 0 0 198.21 -12.42 0 0 -198.21zm122.12 -10.87l137.45 0 0 10.54 -125.03 0 0 85.24 118.77 0 0 10.79 -118.77 0 0 91.96 128.38 0 -2.73 10.54 -138.07 0 0 -209.08zm179.66 0l74.98 0c25.29,0 43.44,5.06 54.45,15.27 11.1,10.13 16.65,23.99 16.65,41.58 0,14.03 -3.35,25.65 -10.13,34.86 -6.7,9.13 -17,15.52 -30.84,19.26l48.2 98.11 -13.74 0 -46.26 -95.45c-5.2,0.99 -11.81,1.49 -19.65,1.49l-61.24 0 0 93.96 -12.42 0 0 -209.08zm74.98 104.58c20.53,0 35.33,-3.98 44.41,-11.87 9.08,-7.89 13.66,-19.84 13.66,-35.86 0,-15.69 -4.58,-27.31 -13.83,-34.86 -9.25,-7.64 -24.4,-11.45 -45.55,-11.45l-61.24 0 0 94.04 62.56 0zm122.12 -0.33c0,30.8 7.31,55.03 21.85,72.63 14.63,17.51 34.98,26.31 61.15,26.31 20.88,0 37.36,-5.48 49.34,-16.35 12.07,-10.96 19.65,-26.06 22.73,-45.4l12.42 0c-2.91,22.25 -11.72,39.92 -26.43,53.04 -14.71,13.03 -34.27,19.59 -58.68,19.59 -19.65,0 -36.65,-4.4 -51.01,-13.2 -14.28,-8.8 -25.29,-21.33 -32.95,-37.6 -7.67,-16.35 -11.45,-35.77 -11.45,-58.43 0,-22.99 3.97,-42.75 11.81,-59.1 7.84,-16.43 18.85,-29.05 33.04,-37.77 14.18,-8.8 30.93,-13.2 50.22,-13.2 22.82,0 41.06,5.89 54.8,17.6 13.84,11.7 23.09,28.22 27.93,49.72l-12.16 2.08c-4.58,-19.51 -12.51,-34.19 -23.79,-44.07 -11.28,-9.88 -26.78,-14.77 -46.43,-14.77 -25.9,0 -46.08,8.8 -60.62,26.39 -14.54,17.51 -21.76,41.75 -21.76,72.54zm209.79 -104.25l137.45 0 0 10.54 -125.03 0 0 85.24 118.77 0 0 10.79 -118.77 0 0 91.96 128.38 0 -2.73 10.54 -138.07 0 0 -209.08zm179.66 0l12.42 0 0 209.08 -12.42 0 0 -209.08zm64.67 0l74.98 0c25.29,0 43.44,5.06 54.45,15.27 11.1,10.13 16.65,23.99 16.65,41.58 0,14.03 -3.35,25.65 -10.13,34.86 -6.7,9.13 -17,15.52 -30.84,19.26l48.2 98.11 -13.75 0 -46.26 -95.45c-5.2,0.99 -11.8,1.49 -19.65,1.49l-61.24 0 0 93.96 -12.42 0 0 -209.08zm74.98 104.58c20.53,0 35.33,-3.98 44.41,-11.87 9.08,-7.89 13.66,-19.84 13.66,-35.86 0,-15.69 -4.58,-27.31 -13.83,-34.86 -9.25,-7.64 -24.41,-11.45 -45.55,-11.45l-61.24 0 0 94.04 62.56 0zm117.1 -104.58l12.42 0 0 209.08 -12.42 0 0 -209.08zm189.96 10.54l-136.75 0 0 -10.54 151.38 0 0 9.71 -138.95 188.5 141.15 0 -2.82 10.87 -153.22 0 0 -9.38 139.22 -189.16zm123.09 -10.54l13.39 0 87.05 209.08 -13.66 0 -27.05 -66.15 -106.61 0 -27.05 66.15 -13.39 0 87.31 -209.08zm55.07 132.06l-48.81 -119.19 -48.81 119.19 97.62 0zm71.46 -27.81c0,30.8 7.31,55.03 21.85,72.63 14.62,17.51 34.98,26.31 61.15,26.31 20.88,0 37.36,-5.48 49.34,-16.35 12.07,-10.96 19.65,-26.06 22.73,-45.4l12.42 0c-2.91,22.25 -11.72,39.92 -26.43,53.04 -14.71,13.03 -34.27,19.59 -58.68,19.59 -19.65,0 -36.65,-4.4 -51.01,-13.2 -14.28,-8.8 -25.29,-21.33 -32.95,-37.6 -7.67,-16.35 -11.45,-35.77 -11.45,-58.43 0,-22.99 3.97,-42.75 11.81,-59.1 7.84,-16.43 18.85,-29.05 33.04,-37.77 14.18,-8.8 30.93,-13.2 50.22,-13.2 22.82,0 41.06,5.89 54.8,17.6 13.84,11.7 23.09,28.22 27.93,49.72l-12.16 2.08c-4.58,-19.51 -12.51,-34.19 -23.79,-44.07 -11.28,-9.88 -26.78,-14.77 -46.43,-14.77 -25.9,0 -46.08,8.8 -60.62,26.39 -14.54,17.51 -21.76,41.75 -21.76,72.54zm77.98 103.92l9.07 0.58 -6.87 17.6c11.63,0.42 19.91,2.41 24.85,5.98 5.02,3.65 7.49,8.72 7.49,15.11 0,14.03 -11.63,21.08 -34.81,21.08 -6.61,0 -12.86,-0.5 -18.68,-1.41l0 -8.8c3.53,0.58 6.7,0.91 9.43,1.08 2.82,0.25 5.81,0.33 8.9,0.33 8.54,0 14.62,-1 18.33,-3.07 3.79,-2.08 5.64,-5.31 5.64,-9.79 0,-4.9 -2.11,-8.3 -6.43,-10.29 -4.23,-1.91 -11.54,-2.9 -21.85,-2.9l-5.02 0 9.96 -25.48zm195.84 -208.17l13.39 0 87.05 209.08 -13.66 0 -27.05 -66.15 -106.61 0 -27.05 66.15 -13.39 0 87.32 -209.08zm55.07 132.06l-48.81 -119.19 -48.81 119.19 97.62 0zm-70.93 -183.27c4.41,0 8.37,0.91 11.98,2.66 3.61,1.74 8.19,5.23 13.57,10.54 4.49,4.48 8.11,7.55 10.84,9.21 2.73,1.66 5.37,2.49 8.11,2.49 9.34,0 14.01,-8.13 14.01,-24.32l9.6 0c0,21.83 -7.75,32.78 -23.35,32.78 -4.49,0 -8.55,-0.91 -12.07,-2.66 -3.52,-1.74 -8.02,-5.31 -13.39,-10.54 -4.49,-4.48 -8.11,-7.47 -10.75,-9.05 -2.56,-1.58 -5.29,-2.32 -8.19,-2.32 -9.34,0 -14.01,7.97 -14.01,23.99l-9.61 0c0,-21.83 7.76,-32.78 23.26,-32.78zm226.88 265.27c-19.65,0 -36.92,-4.4 -51.63,-13.2 -14.72,-8.8 -25.99,-21.33 -34.01,-37.6 -7.93,-16.35 -11.9,-35.86 -11.9,-58.68 0,-23.07 3.96,-42.74 11.9,-59.01 8.02,-16.35 19.29,-28.88 34.01,-37.6 14.71,-8.8 31.98,-13.2 51.63,-13.2 19.91,0 37.09,4.32 51.63,13.03 14.54,8.72 25.73,21.17 33.75,37.52 8.02,16.27 11.98,35.86 11.98,58.68 0,22.83 -3.97,42.41 -11.98,58.93 -8.02,16.52 -19.21,29.13 -33.75,37.93 -14.54,8.8 -31.72,13.2 -51.63,13.2zm0 -10.87c17.62,0 32.69,-3.98 45.2,-11.95 12.6,-8.05 22.2,-19.42 28.9,-34.11 6.78,-14.77 10.13,-32.37 10.13,-52.87 0,-20.5 -3.35,-38.1 -10.13,-52.79 -6.7,-14.77 -16.3,-26.15 -28.9,-34.11 -12.51,-8.05 -27.58,-12.04 -45.2,-12.04 -17.62,0 -32.78,3.98 -45.37,12.04 -12.6,7.97 -22.29,19.34 -29.08,34.11 -6.7,14.69 -10.05,32.29 -10.05,52.79 0,30.63 7.4,54.78 22.2,72.46 14.8,17.68 35.6,26.48 62.29,26.48zm211.02 -203.19l73.04 0c31.28,0 55.6,8.96 72.78,26.81 17.18,17.84 25.81,43.66 25.81,77.44 0,34.36 -9.07,60.42 -27.22,78.19 -18.15,17.76 -43.88,26.64 -77.27,26.64l-67.14 0 0 -209.08zm67.76 198.54c30.22,0 52.95,-8.05 68.11,-24.15 15.16,-16.1 22.73,-39.26 22.73,-69.56 0,-30.46 -7.14,-53.78 -21.5,-69.97 -14.28,-16.18 -35.6,-24.32 -64.06,-24.32l-60.62 0 0 188 55.33 0zm147.94 -198.54l137.45 0 0 10.54 -125.03 0 0 85.24 118.77 0 0 10.79 -118.77 0 0 91.96 128.38 0 -2.73 10.54 -138.07 0 0 -209.08zm249.26 0l12.42 0 0 209.08 -12.42 0 0 -209.08zm64.67 0l15.59 0 86.08 195.05 86.43 -195.05 14.89 0 0 209.08 -11.8 0 0 -190.07 -84.59 190.07 -10.57 0 -84.5 -190.07 0 190.07 -11.54 0 0 -209.08zm255.17 0l75.86 0c25.28,0 43.7,5.31 55.07,15.85 11.37,10.54 17.09,25.32 17.09,44.49 0,19.18 -5.9,34.2 -17.62,45.24 -11.72,11.04 -30.14,16.52 -55.42,16.52l-62.56 0 0 86.98 -12.42 0 0 -209.08zm74.98 111.55c21.06,0 36.48,-4.32 46.08,-12.86 9.6,-8.55 14.45,-21.25 14.45,-38.1 0,-17.02 -4.76,-29.55 -14.27,-37.77 -9.52,-8.22 -25.02,-12.28 -46.61,-12.28l-62.21 0 0 101.01 62.56 0zm113.04 -111.55l74.98 0c25.29,0 43.44,5.06 54.45,15.27 11.1,10.13 16.65,23.99 16.65,41.58 0,14.03 -3.35,25.65 -10.13,34.86 -6.7,9.13 -17,15.52 -30.84,19.26l48.2 98.11 -13.74 0 -46.26 -95.45c-5.2,0.99 -11.8,1.49 -19.65,1.49l-61.24 0 0 93.96 -12.42 0 0 -209.08zm74.98 104.58c20.53,0 35.33,-3.98 44.41,-11.87 9.08,-7.89 13.66,-19.84 13.66,-35.86 0,-15.69 -4.58,-27.31 -13.83,-34.86 -9.25,-7.64 -24.41,-11.45 -45.55,-11.45l-61.24 0 0 94.04 62.56 0zm117.1 -104.58l137.45 0 0 10.54 -125.03 0 0 85.24 118.77 0 0 10.79 -118.77 0 0 91.96 128.38 0 -2.73 10.54 -138.07 0 0 -209.08zm251.82 214.06c-24.05,0 -43.44,-4.81 -58.15,-14.44 -14.72,-9.71 -23.26,-23.82 -25.82,-42.33l12.16 0c2.91,15.02 10.39,26.48 22.47,34.36 12.16,7.89 28.64,11.87 49.34,11.87 21.32,0 37.01,-4.15 47.05,-12.53 10.05,-8.38 15.07,-20.25 15.07,-35.52 0,-13.45 -3.88,-23.74 -11.54,-30.96 -7.67,-7.22 -21.41,-12.37 -41.24,-15.27l-25.82 -4.07c-21.15,-3.32 -36.74,-9.21 -46.79,-17.6 -10.05,-8.38 -15.07,-20.92 -15.07,-37.52 0,-17.93 6.7,-31.62 20.18,-41.09 13.48,-9.46 31.54,-14.19 54.36,-14.19 22.82,0 40.09,4.32 51.81,13.03 11.72,8.72 19.82,21.25 24.41,37.6l-11.54 2.33c-4.32,-14.86 -11.54,-25.57 -21.5,-32.29 -9.96,-6.72 -24.32,-10.13 -43.18,-10.13 -20.88,0 -36.48,3.82 -46.78,11.54 -10.22,7.72 -15.33,18.59 -15.33,32.62 0,13.28 3.88,23.32 11.63,30.21 7.75,6.8 21.06,11.62 40,14.36l26.34 4.07c21.94,3.07 37.98,9.21 48.02,18.26 10.13,9.05 15.16,22.08 15.16,39.09 0,18.34 -6.35,32.7 -19.12,43.08 -12.78,10.37 -31.46,15.52 -56.13,15.52zm190.84 0c-24.05,0 -43.44,-4.81 -58.15,-14.44 -14.71,-9.71 -23.26,-23.82 -25.81,-42.33l12.16 0c2.91,15.02 10.39,26.48 22.47,34.36 12.16,7.89 28.64,11.87 49.34,11.87 21.32,0 37.01,-4.15 47.05,-12.53 10.05,-8.38 15.07,-20.25 15.07,-35.52 0,-13.45 -3.88,-23.74 -11.54,-30.96 -7.67,-7.22 -21.41,-12.37 -41.24,-15.27l-25.82 -4.07c-21.15,-3.32 -36.74,-9.21 -46.78,-17.6 -10.05,-8.38 -15.07,-20.92 -15.07,-37.52 0,-17.93 6.7,-31.62 20.18,-41.09 13.48,-9.46 31.54,-14.19 54.36,-14.19 22.82,0 40.09,4.32 51.81,13.03 11.72,8.72 19.82,21.25 24.41,37.6l-11.54 2.33c-4.32,-14.86 -11.54,-25.57 -21.5,-32.29 -9.95,-6.72 -24.32,-10.13 -43.18,-10.13 -20.88,0 -36.48,3.82 -46.78,11.54 -10.22,7.72 -15.33,18.59 -15.33,32.62 0,13.28 3.88,23.32 11.63,30.21 7.75,6.8 21.06,11.62 40,14.36l26.34 4.07c21.94,3.07 37.98,9.21 48.02,18.26 10.13,9.05 15.16,22.08 15.16,39.09 0,18.34 -6.34,32.7 -19.12,43.08 -12.78,10.37 -31.45,15.52 -56.13,15.52zm208.2 0c-19.65,0 -36.92,-4.4 -51.63,-13.2 -14.71,-8.8 -25.99,-21.33 -34.01,-37.6 -7.93,-16.35 -11.89,-35.86 -11.89,-58.68 0,-23.07 3.96,-42.74 11.89,-59.01 8.02,-16.35 19.3,-28.88 34.01,-37.6 14.72,-8.8 31.98,-13.2 51.63,-13.2 19.91,0 37.09,4.32 51.63,13.03 14.54,8.72 25.73,21.17 33.75,37.52 8.02,16.27 11.98,35.86 11.98,58.68 0,22.83 -3.96,42.41 -11.98,58.93 -8.02,16.52 -19.21,29.13 -33.75,37.93 -14.54,8.8 -31.72,13.2 -51.63,13.2zm0 -10.87c17.62,0 32.69,-3.98 45.2,-11.95 12.6,-8.05 22.2,-19.42 28.9,-34.11 6.78,-14.77 10.13,-32.37 10.13,-52.87 0,-20.5 -3.35,-38.1 -10.13,-52.79 -6.7,-14.77 -16.3,-26.15 -28.9,-34.11 -12.51,-8.05 -27.58,-12.04 -45.2,-12.04 -17.62,0 -32.78,3.98 -45.38,12.04 -12.6,7.97 -22.29,19.34 -29.08,34.11 -6.7,14.69 -10.05,32.29 -10.05,52.79 0,30.63 7.4,54.78 22.2,72.46 14.8,17.68 35.6,26.48 62.29,26.48zm-22.38 -254.4c4.32,0 8.37,0.91 11.98,2.66 3.61,1.74 8.19,5.23 13.57,10.54 4.49,4.48 8.11,7.55 10.84,9.21 2.73,1.66 5.37,2.49 8.11,2.49 9.34,0 14.01,-8.13 14.01,-24.32l9.61 0c0,21.83 -7.75,32.78 -23.35,32.78 -4.49,0 -8.55,-0.91 -12.07,-2.66 -3.52,-1.74 -8.02,-5.31 -13.39,-10.54 -4.58,-4.48 -8.19,-7.47 -10.75,-9.05 -2.56,-1.58 -5.29,-2.32 -8.19,-2.32 -9.34,0 -14.01,7.97 -14.01,23.99l-9.61 0c0,-21.83 7.75,-32.78 23.26,-32.78zm163.8 51.21l137.45 0 0 10.54 -125.03 0 0 85.24 118.77 0 0 10.79 -118.77 0 0 91.96 128.38 0 -2.73 10.54 -138.07 0 0 -209.08zm251.82 214.06c-24.05,0 -43.44,-4.81 -58.15,-14.44 -14.72,-9.71 -23.26,-23.82 -25.82,-42.33l12.16 0c2.91,15.02 10.39,26.48 22.47,34.36 12.16,7.89 28.64,11.87 49.34,11.87 21.32,0 37.01,-4.15 47.05,-12.53 10.05,-8.38 15.07,-20.25 15.07,-35.52 0,-13.45 -3.88,-23.74 -11.54,-30.96 -7.67,-7.22 -21.41,-12.37 -41.23,-15.27l-25.82 -4.07c-21.15,-3.32 -36.74,-9.21 -46.79,-17.6 -10.04,-8.38 -15.07,-20.92 -15.07,-37.52 0,-17.93 6.7,-31.62 20.18,-41.09 13.48,-9.46 31.54,-14.19 54.36,-14.19 22.82,0 40.09,4.32 51.81,13.03 11.72,8.72 19.82,21.25 24.41,37.6l-11.54 2.33c-4.32,-14.86 -11.54,-25.57 -21.5,-32.29 -9.96,-6.72 -24.32,-10.13 -43.18,-10.13 -20.88,0 -36.48,3.82 -46.78,11.54 -10.22,7.72 -15.33,18.59 -15.33,32.62 0,13.28 3.88,23.32 11.63,30.21 7.75,6.8 21.06,11.62 40,14.36l26.34 4.07c21.94,3.07 37.98,9.21 48.02,18.26 10.13,9.05 15.16,22.08 15.16,39.09 0,18.34 -6.34,32.7 -19.12,43.08 -12.78,10.37 -31.46,15.52 -56.13,15.52z"/>
  <path class="fil0" d="M1398.35 0l67.19 0 0 416.81 -67.19 0 0 -416.81zm346.11 0l83.36 0 168.18 353.1 171.29 -353.1 80.46 0 0 416.81 -62.21 0 0 -328.61 -163.82 328.61 -54.96 0 -160.92 -328.12 0 328.12 -61.38 0 0 -416.81zm782.22 0l174.81 0c38.99,0 70.92,3.31 95.81,9.93 24.89,6.62 44.59,15.72 58.89,27.14 14.31,11.42 24.26,24.66 29.86,39.38 5.6,14.73 8.5,30.61 8.5,47.32 0,17.54 -2.9,34.25 -8.71,50.3 -5.81,15.89 -15.97,29.95 -30.48,42.03 -14.31,12.08 -34.22,21.51 -59.31,28.63 -25.09,6.95 -56.61,10.42 -94.56,10.42l-108.25 0 0 161.66 -66.56 0 0 -416.81zm173.99 209.65c34.22,0 60.35,-3.47 78.59,-10.26 18.46,-6.79 30.9,-16.55 37.74,-29.12 6.84,-12.74 10.37,-27.63 10.37,-44.68 0,-18.04 -3.73,-32.93 -10.99,-44.68 -7.26,-11.91 -20.32,-20.85 -38.78,-26.64 -18.46,-5.79 -44.38,-8.77 -77.56,-8.77l-106.8 0 0 164.14 107.42 0zm447.1 -209.65l171.08 0c38.99,0 71.13,3.47 96.22,10.26 25.09,6.78 44.58,16.05 58.48,27.47 13.89,11.42 23.64,24.16 29.24,37.89 5.6,13.74 8.5,27.96 8.5,42.36 0,26.48 -7.05,48.98 -21.36,67.68 -14.1,18.7 -36.71,33.26 -67.81,43.85l109.7 187.31 -75.48 0 -98.71 -174.57c-13.69,1.16 -27.17,1.82 -40.23,1.82l-103.07 0 0 172.75 -66.56 0 0 -416.81zm177.72 197.9c31.31,0 55.16,-3.14 71.96,-9.6 16.8,-6.45 28.62,-15.56 35.05,-27.47 6.64,-11.91 9.96,-25.81 9.96,-41.7 0,-15.55 -3.73,-28.79 -10.99,-39.71 -7.26,-10.92 -19.91,-19.36 -37.95,-25.15 -18.04,-5.79 -43.55,-8.77 -76.73,-8.77l-102.44 0 0 152.39 111.15 0zm447.93 -197.9l67.19 0 0 416.81 -67.19 0 0 -416.81zm346.11 0l83.36 0 168.18 353.1 171.29 -353.1 80.46 0 0 416.81 -62.21 0 0 -328.61 -163.82 328.61 -54.96 0 -160.92 -328.12 0 328.12 -61.38 0 0 -416.81zm935.88 0l70.92 0 202.6 416.81 -73.21 0 -54.75 -116.16 -223.97 0 -54.95 116.16 -70.09 0 203.44 -416.81zm125.05 253.99l-92.28 -192.6 -90.62 192.6 182.91 0z"/>
 </g>
</svg>
